<svg width="22" height="22" viewBox="0 0 22 22" fill="none" xmlns="http://www.w3.org/2000/svg">
<g clip-path="url(#clip0_6622_3566)">
<path d="M11 0C8.06197 0 5.29959 1.14469 3.22231 3.22266C1.14434 5.29959 0 8.06197 0 11C0 13.938 1.14434 16.7004 3.22231 18.7777C5.29959 20.8557 8.06197 22 11 22C13.938 22 16.7004 20.8553 18.778 18.7773C20.8557 16.7004 22 13.938 22 11C22 8.06197 20.8557 5.29959 18.7777 3.22231C16.7004 1.14434 13.938 0 11 0ZM18.292 18.2916C16.3439 20.2397 13.7545 21.3125 11 21.3125C8.24553 21.3125 5.65606 20.2397 3.70837 18.2913C1.76034 16.3439 0.6875 13.7545 0.6875 11C0.6875 8.24553 1.76034 5.65606 3.70837 3.70837C5.65606 1.76034 8.24553 0.6875 11 0.6875C13.7545 0.6875 16.3439 1.76069 18.292 3.70872C20.24 5.65606 21.3125 8.24553 21.3125 11C21.3125 13.7545 20.24 16.3439 18.292 18.2916Z" fill="black"/>
<path d="M10.6562 5.84375H11.3438V13.4062H10.6562V5.84375Z" fill="black"/>
<path d="M10.6562 14.7812H11.3438V16.1562H10.6562V14.7812Z" fill="black"/>
</g>
<defs>
<clipPath id="clip0_6622_3566">
<rect width="22" height="22" fill="white"/>
</clipPath>
</defs>
</svg>
