<svg width="28" height="28" viewBox="0 0 28 28" fill="none" xmlns="http://www.w3.org/2000/svg">
<path d="M13.704 22.2977C9.2018 22.2977 5.55713 18.6531 5.55713 14.1508C5.55713 9.64857 9.2018 6.00391 13.704 6.00391C18.2063 6.00391 21.8509 9.64857 21.8509 14.1508C21.8509 18.6531 18.2063 22.2977 13.704 22.2977ZM13.704 7.22901C9.8756 7.22901 6.78223 10.3224 6.78223 14.1508C6.78223 17.9792 9.8756 21.0726 13.704 21.0726C17.5325 21.0726 20.6259 17.9792 20.6259 14.1508C20.6259 10.3224 17.5325 7.22901 13.704 7.22901Z" fill="#1A2D58"/>
<path d="M17.1649 27.8416H10.2738L9.99811 25.6365C9.38556 25.4527 8.80364 25.2077 8.22171 24.9014L6.47595 26.249L1.60618 21.4099L2.95379 19.6641C2.67814 19.0822 2.43312 18.5003 2.21873 17.8877L0.0135498 17.5814V10.6902L2.21873 10.4146C2.40249 9.80205 2.64751 9.22013 2.95379 8.63821L1.60618 6.86181L6.47595 1.99204L8.22171 3.33965C8.80364 3.064 9.38556 2.81898 9.99811 2.60459L10.2738 0.399414H17.1649L17.4712 2.60459C18.0838 2.78836 18.6657 3.03337 19.2476 3.33965L21.024 1.99204L25.8938 6.86181L24.5462 8.63821C24.8218 9.22013 25.0668 9.80205 25.2812 10.384L27.4864 10.6596V17.5814L25.2812 17.8571C25.0975 18.4696 24.8524 19.0516 24.5462 19.6335L25.8938 21.4099L21.024 26.2796L19.2476 24.932C18.6657 25.2077 18.0838 25.4527 17.4712 25.6671L17.1649 27.8416ZM11.3457 26.6165H16.093L16.338 24.687L16.7362 24.5645C17.5018 24.3501 18.2675 24.0132 19.0026 23.6457L19.3395 23.4619L20.9015 24.6564L24.2399 21.318L23.0454 19.756L23.2292 19.4191C23.6273 18.7146 23.9336 17.949 24.148 17.1833L24.2705 16.7851L26.2 16.5401V11.7928L24.2705 11.5478L24.148 11.1497C23.9336 10.384 23.6273 9.61829 23.2292 8.91386L23.0454 8.57695L24.2399 7.01495L20.8709 3.64592L19.3395 4.8404L19.0026 4.65663C18.2982 4.25848 17.5325 3.9522 16.7362 3.73781L16.338 3.6153L16.093 1.65514H11.3457L11.1007 3.58467L10.7025 3.70718C9.93685 3.92158 9.17117 4.25848 8.43611 4.62601L8.0992 4.80977L6.56783 3.6153L3.22944 6.98432L4.42391 8.5157L4.24014 8.8526C3.84199 9.55703 3.53571 10.3227 3.32132 11.0884L3.19881 11.4866L1.26928 11.7316V16.4482L3.19881 16.6932L3.32132 17.0914C3.53571 17.8877 3.87261 18.6228 4.24014 19.3578L4.42391 19.6947L3.22944 21.2261L6.56783 24.5645L8.0992 23.37L8.46673 23.5538C9.17117 23.9519 9.93685 24.2582 10.7332 24.4726L11.1313 24.5951L11.3457 26.6165Z" fill="#1A2D58"/>
</svg>
