<svg width="30" height="31" viewBox="0 0 30 31" fill="none" xmlns="http://www.w3.org/2000/svg">
<path d="M17.7594 14.9496C17.1142 14.6288 16.3633 14.3919 15.4447 14.2242C14.3584 14.0492 12.4301 13.5717 11.7448 12.3068C11.3548 11.5887 11.4058 10.6446 11.8979 9.49999C13.695 6.74787 17.7157 8.45746 18.5067 8.82928L19.1264 7.50971C18.0984 7.0249 16.9137 6.66038 15.729 6.55467V4.7503H14.271V6.56925C12.8384 6.72964 11.5188 7.36755 10.6367 8.76731L10.5857 8.86208C9.87849 10.4623 9.8384 11.8548 10.4654 13.003C11.4022 14.7236 13.5638 15.3979 15.2005 15.6604C15.966 15.7989 16.5893 15.9921 17.096 16.2473C19.3196 17.4174 18.729 18.9192 18.5286 19.4259C18.0984 20.585 17.3439 21.3432 16.2868 21.675C14.7558 22.1561 12.7363 21.675 10.8809 20.3919L10.0498 21.5911C11.4168 22.5389 12.8894 23.1075 14.2746 23.2643V25.1379H15.7327V23.2716C16.0753 23.2315 16.407 23.1658 16.7242 23.0674C18.2114 22.5972 19.3086 21.5146 19.8882 19.9471C20.6938 17.9058 19.921 16.0869 17.7594 14.9496Z" fill="#032A5A"/>
<path d="M15 30.0771C6.72904 30.0771 0 23.3481 0 15.0771C0 6.80619 6.72904 0.0771484 15 0.0771484C23.271 0.0771484 30 6.80619 30 15.0771C30 23.3481 23.271 30.0771 15 30.0771ZM15 1.53523C7.53098 1.53523 1.45808 7.61178 1.45808 15.0771C1.45808 22.5425 7.53098 28.6191 15 28.6191C22.469 28.6191 28.5419 22.5462 28.5419 15.0771C28.5419 7.60813 22.4654 1.53523 15 1.53523Z" fill="#032A5A"/>
</svg>
