<svg width="32" height="33" viewBox="0 0 32 33" fill="none" xmlns="http://www.w3.org/2000/svg">
<g clip-path="url(#clip0_634_383)">
<path fill-rule="evenodd" clip-rule="evenodd" d="M9.03483 17.8245C4.43818 17.8245 0.71875 14.1051 0.71875 9.50847C0.71875 4.91181 4.43818 1.19238 9.03483 1.19238C13.6315 1.19238 17.3509 4.91181 17.3509 9.50847C17.3509 14.1051 13.5964 17.8245 9.03483 17.8245ZM9.03483 2.59594C5.24522 2.59594 2.12231 5.68377 2.12231 9.50847C2.12231 13.3332 5.21013 16.421 9.03483 16.421C12.8595 16.421 15.9474 13.3332 15.9474 9.50847C15.9474 5.68377 12.8244 2.59594 9.03483 2.59594ZM9.73651 3.99887H8.33295V4.61764C7.60588 4.76067 6.94175 5.14693 6.47317 5.89374L6.43808 5.999C6.01702 6.9464 5.98193 7.78853 6.36791 8.49031C6.99951 9.61315 8.36797 9.96404 9.13993 10.0693C9.45573 10.1044 9.77153 10.2097 10.0172 10.35C10.9295 10.8413 10.754 11.4027 10.6488 11.6483C10.4382 12.1746 10.0873 12.5255 9.63118 12.6659C8.9294 12.9115 7.94691 12.6659 7.0346 12.0343L6.22755 13.1922C6.90967 13.6645 7.63103 13.9798 8.33295 14.1088V14.8768H9.73651V14.0994C9.86197 14.068 9.99013 14.0243 10.1224 13.9642C10.9996 13.6835 11.6663 13.0519 12.0172 12.1045C12.4734 10.8764 11.9821 9.7886 10.7189 9.08682C10.2979 8.8412 9.84171 8.70085 9.35046 8.63067C9.03466 8.59558 7.94691 8.38504 7.63111 7.78853C7.45566 7.50782 7.49075 7.08676 7.70128 6.59552C8.51 5.38244 10.3866 6.208 10.7518 6.36865L10.7891 6.38497L11.3856 5.12178C10.8884 4.88446 10.3184 4.69446 9.73651 4.60569V3.99887ZM5.56092 29.7894V22.7017H12.4033V29.7894H13.456V18.1409H20.2984V29.7894H21.3862V11.7193H18.3685L24.8249 4.38574L31.2812 11.7193H28.2636V29.7894H29.7022V31.1929H4.08724V29.7894H5.56092ZM10.9997 29.7546H6.96448V24.1052H10.9997V29.7546ZM14.8596 29.7554H18.8948V19.5445H14.8596V29.7554ZM2.22746 29.7894H1.10461V31.1929H2.22746V29.7894ZM26.8249 29.7551H22.7897V10.3509H21.4563L24.7898 6.52618L28.1583 10.3158H26.8249V29.7551Z" fill="#032A5A"/>
</g>
<defs>
<clipPath id="clip0_634_383">
<rect width="30.5625" height="32.0005" fill="white" transform="translate(0.71875 0.192383)"/>
</clipPath>
</defs>
</svg>
