<svg width="94" height="94" viewBox="0 0 94 94" fill="none" xmlns="http://www.w3.org/2000/svg">
<circle cx="47" cy="47" r="47" fill="#E4F3FF"/>
<path d="M23.7617 68.01L28.3779 62.5938" stroke="#032a5a" stroke-width="3" stroke-linecap="round" stroke-linejoin="round"/>
<path d="M22 60.9677L26.6162 59.4258" stroke="#032a5a" stroke-width="3" stroke-linecap="round" stroke-linejoin="round"/>
<path d="M30.8008 68.1834L31.7221 63.8242" stroke="#032a5a" stroke-width="3" stroke-linecap="round" stroke-linejoin="round"/>
<path d="M67.7656 20.877L63.1445 26.2883" stroke="#032a5a" stroke-width="3" stroke-linecap="round" stroke-linejoin="round"/>
<path d="M69.5234 27.918L64.9023 29.4599" stroke="#032a5a" stroke-width="3" stroke-linecap="round" stroke-linejoin="round"/>
<path d="M60.723 20.7031L59.7969 25.0575" stroke="#032a5a" stroke-width="3" stroke-linecap="round" stroke-linejoin="round"/>
<path d="M29.2956 29.4556C27.9961 28.7137 26.3038 28.8931 25.2031 29.9986C24.5339 30.6678 24.2188 31.5309 24.2188 32.4085C24.2188 33.2862 24.5388 34.1493 25.2031 34.8185L27.4979 37" stroke="#032a5a" stroke-width="3" stroke-linecap="round" stroke-linejoin="round"/>
<path d="M37.9991 28.5002L35.4114 25.7947L33.016 23.3993C31.6777 22.0804 29.5297 22.0804 28.2108 23.3993C27.5416 24.0685 27.207 24.9316 27.207 25.7947C27.207 26.6578 27.5416 27.5549 28.2108 28.2046L30.4991 30.5002" stroke="#032a5a" stroke-width="3" stroke-linecap="round" stroke-linejoin="round"/>
<path d="M53.7262 34.5L40.2154 20.9892C38.8965 19.6703 36.7484 19.6703 35.4101 20.9892C34.741 21.6583 34.4258 22.5214 34.4258 23.3991C34.4258 24.2767 34.7458 25.1253 35.4101 25.7945" stroke="#032a5a" stroke-width="3" stroke-linecap="round" stroke-linejoin="round"/>
<path d="M52.4807 33.2134C50.5557 30.8763 50.6866 27.4141 52.8735 25.2321L53.4699 24.6309L65.4758 36.6368C66.5572 37.7181 67.4203 38.94 68.0652 40.2444C69.2133 42.8491 69.167 44.8336 69.0004 45.5002" stroke="#032a5a" stroke-width="3" stroke-linecap="round" stroke-linejoin="round"/>
<path d="M25.7093 36.8301C24.8704 36.8543 24.0413 37.1792 23.4061 37.8144C22.7369 38.4836 22.4023 39.3467 22.4023 40.2243C22.4023 42.4985 24.5019 43.8125 24.5019 43.8125" stroke="#032a5a" stroke-width="3" stroke-linecap="round" stroke-linejoin="round"/>
<path d="M30 46.1289L40.8955 57.0244L30.0873 46.2016C30.0533 46.1677 30.0339 46.1483 30 46.1289Z" stroke="#032a5a" stroke-width="3" stroke-linecap="round" stroke-linejoin="round"/>
<path d="M45.1054 51.6019L31.8873 38.3837C30.5684 37.0648 28.4009 37.0648 27.082 38.3837C26.4128 39.0529 26.0977 39.916 26.0977 40.7936C26.0977 41.6713 26.4177 42.5344 27.082 43.2035L30.0059 46.1274" stroke="#032a5a" stroke-width="3" stroke-linecap="round" stroke-linejoin="round"/>
<path d="M49.912 46.7973L37.2903 34.1756L34.8949 31.7802C33.5566 30.4613 31.4086 30.4613 30.0897 31.7802C29.4205 32.4493 29.0859 33.3125 29.0859 34.1756C29.0859 35.0387 29.4205 35.9357 30.0897 36.5855L31.8838 38.3796" stroke="#032a5a" stroke-width="3" stroke-linecap="round" stroke-linejoin="round"/>
<path d="M60.7375 48.0151L54.7539 42.0316L42.0982 29.3759C40.7793 28.057 38.6312 28.057 37.2929 29.3759C36.6238 30.045 36.3086 30.9082 36.3086 31.7858C36.3086 32.6635 36.6286 33.512 37.2929 34.1812" stroke="#032a5a" stroke-width="3" stroke-linecap="round" stroke-linejoin="round"/>
<path d="M30.003 46.1291C28.6647 44.878 26.5699 44.9168 25.285 46.2018C24.6158 46.8709 24.2812 47.7341 24.2812 48.6117C24.2812 49.4894 24.6158 50.3379 25.285 51.0071L43.3278 69.0693C48.6422 74.3692 57.2539 74.3692 62.5489 69.0693L67.3542 64.264C72.6686 58.9496 72.6686 50.3428 67.3542 45.0235L55.3483 33.0176L54.7519 33.6188C52.4292 35.9415 52.4292 39.7091 54.7519 42.0317" stroke="#032a5a" stroke-width="3" stroke-linecap="round" stroke-linejoin="round"/>
</svg>
