<svg width="27" height="29" viewBox="0 0 27 29" fill="none" xmlns="http://www.w3.org/2000/svg">
<path d="M25.0822 13.623H8.97217V14.8481H25.0822V13.623Z" fill="#1A2D58"/>
<path d="M21.5906 19.2587L20.7024 18.3705L24.8677 14.2358L20.7024 10.0705L21.5906 9.21289L26.6135 14.2358L21.5906 19.2587Z" fill="#1A2D58"/>
<path d="M13.7194 28.0179H4.53114C2.50973 28.0179 0.886475 26.3946 0.886475 24.3732V4.0978C0.886475 2.07639 2.50973 0.453125 4.53114 0.453125H13.7194C15.7408 0.453125 17.3641 2.07639 17.3641 4.0978V7.95686H16.139V4.0978C16.139 2.75019 15.067 1.67822 13.7194 1.67822H4.53114C3.18354 1.67822 2.11157 2.75019 2.11157 4.0978V24.3732C2.11157 25.7208 3.18354 26.7928 4.53114 26.7928H13.7194C15.067 26.7928 16.139 25.7208 16.139 24.3732V20.606H17.3641V24.3732C17.3641 26.364 15.7102 28.0179 13.7194 28.0179Z" fill="#1A2D58"/>
</svg>
