<svg width="41" height="39" viewBox="0 0 41 39" fill="none" xmlns="http://www.w3.org/2000/svg">
<path fill-rule="evenodd" clip-rule="evenodd" d="M13.3106 17.1953C9.8378 13.801 9.8378 8.29774 13.3106 4.90342C16.7835 1.5091 22.4141 1.5091 25.8869 4.90342C29.3598 8.29774 29.3598 13.801 25.8869 17.1953C22.4141 20.5897 16.7835 20.5897 13.3106 17.1953ZM11.605 3.23629C7.19007 7.55134 7.19007 14.5474 11.6049 18.8625C16.0198 23.1775 23.1778 23.1775 27.5926 18.8625C32.0075 14.5474 32.0075 7.55134 27.5926 3.23629C23.1778 -1.07876 16.0198 -1.07876 11.605 3.23629ZM2.3107 38.2066C4.80429 31.4984 11.7483 26.5964 20.0105 26.5964C28.2733 26.5964 35.222 31.4988 37.71 38.2058C37.9391 38.8233 38.6254 39.1382 39.2429 38.9091C39.8604 38.6801 40.1753 37.9938 39.9462 37.3763C37.0878 29.6706 29.2011 24.2113 20.0105 24.2113C10.8194 24.2113 2.93899 29.671 0.075055 37.3755C-0.154431 37.9929 0.160001 38.6794 0.777357 38.9089C1.39471 39.1383 2.08121 38.8239 2.3107 38.2066Z" fill="#032A5A"/>
</svg>
